<svg version="1.1" id="Layer_1" xmlns="http://www.w3.org/2000/svg" xmlns:xlink="http://www.w3.org/1999/xlink" x="0px" y="0px"
	 width="100%" viewBox="0 0 364 365" enable-background="new 0 0 364 365" xml:space="preserve">
<path fill="#D2EBF7" opacity="1.000000" stroke="none" 
	d="
M365.000000,12.000004 
	C365.000000,81.020897 365.000000,150.041794 364.740295,219.204651 
	C360.655304,224.588165 355.723602,228.321426 349.345642,229.736877 
	C344.933868,230.715958 340.292755,230.796982 335.975891,232.045853 
	C312.523499,238.830566 291.503296,250.131638 273.610931,266.867493 
	C263.553436,276.274902 254.845978,286.869049 247.756577,298.700470 
	C238.476685,314.187561 232.244614,330.920746 229.100235,348.643646 
	C227.862747,355.618652 225.438553,360.943115 218.867447,364.002625 
	C218.375061,364.231873 218.279861,365.314240 218.000000,366.000000 
	C149.979111,366.000000 81.958206,366.000000 13.789997,365.720123 
	C13.249488,364.916321 12.964454,364.110901 12.446440,363.911865 
	C7.049932,361.838287 3.903018,357.969116 2.769071,352.334106 
	C2.724579,352.113007 1.613889,352.106476 1.000000,352.000000 
	C1.000000,349.958344 1.000000,347.916656 1.362545,345.774719 
	C2.170262,344.511230 2.856925,343.381592 3.023949,342.179688 
	C5.129112,327.031067 6.611009,311.770416 9.393792,296.749939 
	C11.379931,286.029449 14.576351,275.451385 18.141930,265.123657 
	C24.123074,247.799225 29.611973,230.140396 37.517757,213.683838 
	C49.043091,189.692871 62.274929,166.452820 79.662025,146.017059 
	C90.865135,132.849625 102.150444,119.704941 114.145897,107.270683 
	C129.399826,91.458740 146.596725,77.824318 164.935150,65.692955 
	C172.207809,60.881893 179.360672,55.795479 187.030136,51.699619 
	C200.097305,44.721104 213.244446,37.746368 226.884552,32.025532 
	C242.098389,25.644670 257.716736,20.060757 273.506470,15.276764 
	C284.903320,11.823730 296.798401,9.800842 308.598175,7.948698 
	C321.977417,5.848634 335.497498,4.644363 348.957825,3.063102 
	C354.701202,2.388396 358.561768,5.370895 361.865265,9.604680 
	C362.647919,10.607737 363.941467,11.212197 365.000000,12.000004 
M186.508972,206.226624 
	C193.492340,206.227081 200.477493,206.132019 207.458435,206.262619 
	C211.872696,206.345184 213.928452,204.251724 213.960373,200.002609 
	C214.006592,193.850952 213.991516,187.698593 213.965332,181.546692 
	C213.948166,177.515228 211.867905,175.311462 207.848816,175.288483 
	C196.376541,175.222839 184.903580,175.245682 173.431000,175.273788 
	C169.401520,175.283661 167.240280,177.352539 167.212448,181.415512 
	C167.169159,187.733459 167.129044,194.053131 167.230179,200.369781 
	C167.294510,204.388245 169.347488,206.415253 173.544601,206.259628 
	C177.529633,206.111877 181.524429,206.227051 186.508972,206.226624 
z"/>
<path fill="#000000" opacity="1.000000" stroke="none" 
	d="
M365.000000,11.517048 
	C363.941467,11.212197 362.647919,10.607737 361.865265,9.604680 
	C358.561768,5.370895 354.701202,2.388396 348.957825,3.063102 
	C335.497498,4.644363 321.977417,5.848634 308.598175,7.948698 
	C296.798401,9.800842 284.903320,11.823730 273.506470,15.276764 
	C257.716736,20.060757 242.098389,25.644670 226.884552,32.025532 
	C213.244446,37.746368 200.097305,44.721104 187.030136,51.699619 
	C179.360672,55.795479 172.207809,60.881893 164.935150,65.692955 
	C146.596725,77.824318 129.399826,91.458740 114.145897,107.270683 
	C102.150444,119.704941 90.865135,132.849625 79.662025,146.017059 
	C62.274929,166.452820 49.043091,189.692871 37.517757,213.683838 
	C29.611973,230.140396 24.123074,247.799225 18.141930,265.123657 
	C14.576351,275.451385 11.379931,286.029449 9.393792,296.749939 
	C6.611009,311.770416 5.129112,327.031067 3.023949,342.179688 
	C2.856925,343.381592 2.170262,344.511230 1.362545,345.337219 
	C1.000000,230.407669 1.000000,115.815346 1.000000,1.111511 
	C122.333252,1.111511 243.666611,1.111511 365.000000,1.111511 
	C365.000000,4.371806 365.000000,7.702947 365.000000,11.517048 
z"/>
<path fill="#000000" opacity="1.000000" stroke="none" 
	d="
M218.468658,366.000000 
	C218.279861,365.314240 218.375061,364.231873 218.867447,364.002625 
	C225.438553,360.943115 227.862747,355.618652 229.100235,348.643646 
	C232.244614,330.920746 238.476685,314.187561 247.756577,298.700470 
	C254.845978,286.869049 263.553436,276.274902 273.610931,266.867493 
	C291.503296,250.131638 312.523499,238.830566 335.975891,232.045853 
	C340.292755,230.796982 344.933868,230.715958 349.345642,229.736877 
	C355.723602,228.321426 360.655304,224.588165 364.740295,219.673309 
	C365.000000,268.593903 365.000000,317.187836 365.000000,366.000000 
	C316.312653,366.000000 267.625000,366.000000 218.468658,366.000000 
z"/>
<path fill="#000000" opacity="1.000000" stroke="none" 
	d="
M1.000000,352.474121 
	C1.613889,352.106476 2.724579,352.113007 2.769071,352.334106 
	C3.903018,357.969116 7.049932,361.838287 12.446440,363.911865 
	C12.964454,364.110901 13.249488,364.916321 13.321340,365.720123 
	C9.070312,366.000000 5.140625,366.000000 1.000000,366.000000 
	C1.000000,361.650848 1.000000,357.299530 1.000000,352.474121 
z"/>
<path fill="#171A1B" opacity="1.000000" stroke="none" 
	d="
M186.011948,206.226608 
	C181.524429,206.227051 177.529633,206.111877 173.544601,206.259628 
	C169.347488,206.415253 167.294510,204.388245 167.230179,200.369781 
	C167.129044,194.053131 167.169159,187.733459 167.212448,181.415512 
	C167.240280,177.352539 169.401520,175.283661 173.431000,175.273788 
	C184.903580,175.245682 196.376541,175.222839 207.848816,175.288483 
	C211.867905,175.311462 213.948166,177.515228 213.965332,181.546692 
	C213.991516,187.698593 214.006592,193.850952 213.960373,200.002609 
	C213.928452,204.251724 211.872696,206.345184 207.458435,206.262619 
	C200.477493,206.132019 193.492340,206.227081 186.011948,206.226608 
M177.744293,178.772430 
	C175.511551,181.567581 173.278809,184.362732 171.046066,187.157883 
	C170.707718,186.922699 170.369354,186.687515 170.031006,186.452347 
	C170.031006,189.431366 170.031006,192.410400 170.031006,193.921616 
	C173.552643,197.532303 176.285797,200.334564 179.664352,203.798553 
	C186.499237,203.798553 194.634842,203.798553 201.381088,203.798553 
	C204.874634,200.241211 207.620834,197.444870 210.877502,194.128738 
	C210.877502,192.196472 210.877502,189.221390 210.877502,187.669159 
	C207.455231,184.156281 204.808441,181.439407 201.588547,178.134262 
	C194.597778,178.134262 186.452301,178.134262 177.744293,178.772430 
z"/>
<path fill="#CEE7F2" opacity="1.000000" stroke="none" 
	d="
M178.025574,178.453339 
	C186.452301,178.134262 194.597778,178.134262 201.588547,178.134262 
	C204.808441,181.439407 207.455231,184.156281 210.877502,187.669159 
	C210.877502,189.221390 210.877502,192.196472 210.877502,194.128738 
	C207.620834,197.444870 204.874634,200.241211 201.381088,203.798553 
	C194.634842,203.798553 186.499237,203.798553 179.664352,203.798553 
	C176.285797,200.334564 173.552643,197.532303 170.031006,193.921616 
	C170.031006,192.410400 170.031006,189.431366 170.031006,186.452347 
	C170.369354,186.687515 170.707718,186.922699 171.046066,187.157883 
	C173.278809,184.362732 175.511551,181.567581 178.025574,178.453339 
M182.860046,191.353607 
	C184.291519,196.921829 187.872757,199.738480 192.174637,198.500198 
	C196.364700,197.294113 198.567215,194.510574 198.154755,190.020447 
	C197.759186,185.714020 195.045074,183.534866 191.028397,183.056274 
	C186.854233,182.558945 184.063568,185.278809 182.860046,191.353607 
z"/>
<path fill="#141718" opacity="1.000000" stroke="none" 
	d="
M182.859436,190.952667 
	C184.063568,185.278809 186.854233,182.558945 191.028397,183.056274 
	C195.045074,183.534866 197.759186,185.714020 198.154755,190.020447 
	C198.567215,194.510574 196.364700,197.294113 192.174637,198.500198 
	C187.872757,199.738480 184.291519,196.921829 182.859436,190.952667 
M188.179672,195.294739 
	C190.357178,194.768387 193.066483,194.828796 194.523865,193.507919 
	C195.483856,192.637863 195.311447,189.344193 194.402740,187.940918 
	C193.610428,186.717377 190.994385,185.952621 189.330078,186.159454 
	C185.306702,186.659454 184.562698,190.666718 188.179672,195.294739 
z"/>
<path fill="#C9E1EC" opacity="1.000000" stroke="none" 
	d="
M187.817917,195.112091 
	C184.562698,190.666718 185.306702,186.659454 189.330078,186.159454 
	C190.994385,185.952621 193.610428,186.717377 194.402740,187.940918 
	C195.311447,189.344193 195.483856,192.637863 194.523865,193.507919 
	C193.066483,194.828796 190.357178,194.768387 187.817917,195.112091 
z"/>
</svg>